<svg xmlns="http://www.w3.org/2000/svg" viewBox="0 0 1276 458"><defs><style>.cls-1{fill:#3d89c9;}.cls-2{isolation:isolate;font-size:197.93px;font-family:AXIS-ExtraBold, AXIS;font-weight:800;}.cls-3{letter-spacing:-0.03em;}.cls-4{letter-spacing:-0.14em;}.cls-5{letter-spacing:0em;}.cls-6{letter-spacing:-0.02em;}.cls-7{letter-spacing:-0.02em;}</style></defs><g id="Layer_2" data-name="Layer 2"><g id="Layer_1-2" data-name="Layer 1"><g id="Layer_2-2" data-name="Layer 2"><g id="Layer_1-2-2" data-name="Layer 1-2"><path class="cls-1" d="M37.05,172.08a57.35,57.35,0,0,1-1.2-11.75c0-29.49,21.68-53.36,48.41-53.36s48.41,23.87,48.41,53.36a58.85,58.85,0,0,1-1.19,11.75h29.26a96.29,96.29,0,0,0,.74-11.75c0-47.06-34.6-85.21-77.28-85.21S7,113.27,7,160.33a94.31,94.31,0,0,0,.72,11.75Z"/><ellipse class="cls-1" cx="84.26" cy="33.22" rx="36.43" ry="33.22"/><text class="cls-2" transform="translate(197.91 172.21) scale(1.1 1)">N<tspan class="cls-3" x="159.73" y="0">S</tspan><tspan class="cls-4" x="285.21" y="0">T</tspan><tspan class="cls-5" x="400.01" y="0">A</tspan></text><text class="cls-2" transform="translate(0 374.87) scale(1.1 1)"><tspan class="cls-6">C</tspan><tspan x="147.06" y="0">ONN</tspan><tspan class="cls-7" x="618.13" y="0">E</tspan><tspan x="742.63" y="0">C</tspan><tspan class="cls-6" x="893.65" y="0">T</tspan><tspan x="1032.2" y="0">S</tspan></text></g></g></g></g></svg>